inDegrees=no
num_controls=7
num_derivatives=13
num_iterations=141
num_multipliers=7
num_parameters=0
num_slacks=7
num_states=26
objective=4.975262
objective_accelerations=0.451420
objective_balance=0.040160
objective_effort=0.235860
objective_height=4.226229
objective_ligament=0.021595
solver_duration=1578.282978
status=Solve_Succeeded
success=true
DataType=double
version=3
OpenSimVersion=4.4-2022-07-23-0e9fedc
endheader
time	/jointset/ground_pelvis/pelvis_tilt/value	/jointset/ground_pelvis/pelvis_tx/value	/jointset/ground_pelvis/pelvis_ty/value	/jointset/hip_l/hip_flexion_l/value	/jointset/hip_l/hip_adduction_l/value	/jointset/hip_l/hip_rotation_l/value	/jointset/back/lumbar_extension/value	/jointset/patellofemoral_l/patellar_flexion_l/value	/jointset/knee_l/knee_flexion_l/value	/jointset/knee_l/knee_adduction_l/value	/jointset/knee_l/knee_rotation_l/value	/jointset/ankle_l/ankle_angle_l/value	/jointset/subtalar_l/subtalar_angle_l/value	/jointset/ground_pelvis/pelvis_tilt/speed	/jointset/ground_pelvis/pelvis_tx/speed	/jointset/ground_pelvis/pelvis_ty/speed	/jointset/hip_l/hip_flexion_l/speed	/jointset/hip_l/hip_adduction_l/speed	/jointset/hip_l/hip_rotation_l/speed	/jointset/back/lumbar_extension/speed	/jointset/patellofemoral_l/patellar_flexion_l/speed	/jointset/knee_l/knee_flexion_l/speed	/jointset/knee_l/knee_adduction_l/speed	/jointset/knee_l/knee_rotation_l/speed	/jointset/ankle_l/ankle_angle_l/speed	/jointset/subtalar_l/subtalar_angle_l/speed	/forceset/tau_hip_flexion_l	/forceset/tau_hip_adduction_l	/forceset/tau_hip_rotation_l	/forceset/tau_knee_flexion_l	/forceset/tau_ankle_angle_l	/forceset/tau_subtalar_angle_l	/forceset/tau_lumbar_extension	lambda_cid13_p0	lambda_cid13_p1	lambda_cid13_p2	lambda_cid13_p3	lambda_cid13_p4	lambda_cid13_p5	lambda_cid14_p0	/jointset/ground_pelvis/pelvis_tilt/accel	/jointset/ground_pelvis/pelvis_tx/accel	/jointset/ground_pelvis/pelvis_ty/accel	/jointset/hip_l/hip_flexion_l/accel	/jointset/hip_l/hip_adduction_l/accel	/jointset/hip_l/hip_rotation_l/accel	/jointset/back/lumbar_extension/accel	/jointset/patellofemoral_l/patellar_flexion_l/accel	/jointset/knee_l/knee_flexion_l/accel	/jointset/knee_l/knee_adduction_l/accel	/jointset/knee_l/knee_rotation_l/accel	/jointset/ankle_l/ankle_angle_l/accel	/jointset/subtalar_l/subtalar_angle_l/accel	gamma_cid13_p0	gamma_cid13_p1	gamma_cid13_p2	gamma_cid13_p3	gamma_cid13_p4	gamma_cid13_p5	gamma_cid14_p0
0.5	-0.338345202470691	-0.03997346232462944	0.7947700210990887	0.9638602818518348	-0.4287360623047087	-0.297761632515847	-0.2517872001936974	0.607421947239444	0.6074219472394444	-0.1744581956969041	-0.165952970027851	0.01368731993388334	-0.07168887900910527	-0.7898963095252735	-0.2454013851315966	-0.3765642188099191	2.105884740201906	-0.2219852647118067	0.6129294717424791	-0.1317984866051847	1.452089848858221	1.452089848858315	-0.0008410347434918625	-0.05194366281477508	0.2307037435082175	-0.1330306661604578	-0.1699982901516635	0.01571130570802322	-0.005973400277890051	-0.1799124532704435	0.0746105424036758	0.04828257081921192	0.1676591280355965	-10.03781558414844	-22.93436659505569	7.572775192848598	-4.443079133672517	-530.379996702065	-70.07808833576001	-34.45826034884512	0.5719757025850793	0.4741426149240199	-0.2603615332053484	-1.169339249670812	0.5534928585485385	-0.07101336070016492	1.013576880815354	-0.9356835134040968	-0.9356835134041041	0.01228611050326138	0.1448656407367687	-0.1212690464487431	0.5057508298643041	5.467176226874101e-09	-7.414857220415314e-07	-1.502244939867111e-07	-2.059356600976532e-07	-7.511639818359869e-08	1.81332969455509e-08	-9.076347638824701e-08
0.51	-0.3462140387003965	-0.04240348074748155	0.7909921255355199	0.9848570707939877	-0.4309284973563367	-0.2916381694925776	-0.2530551102561522	0.6218942358741922	0.6218942358741981	-0.1744663341265744	-0.1664667112096835	0.01598778371608476	-0.07299438915402949	-0.7837627237114809	-0.2405779935243245	-0.3789378109695625	2.093182271982401	-0.2164820111998381	0.6116801617773143	-0.1218012609638542	1.442169039749216	1.442169039749254	-0.0007859141713378785	-0.05079508770937578	0.2293484606276671	-0.1280672711200536	-0.1754010978364134	0.01685412071741768	-0.005787304215861407	-0.1812562165758468	0.07420803613003292	0.04930682273351818	0.1717156008717704	-10.30934755402668	-23.2915272676006	7.58387979091577	-4.460087607238268	-532.9282875131883	-69.91914378365686	-33.87450530049277	0.6503013778282977	0.490041477142002	-0.2143089053849937	-1.364296918476275	0.5518318006774537	-0.1644051229576452	0.9901351441388399	-1.050087914465541	-1.050087914473955	0.00209139515429495	0.1012821646228762	-0.1487571383708131	0.4923851673906874	7.301368940454757e-09	-7.172557053763349e-07	-1.671850068829683e-07	-2.033152918432746e-07	-6.512260824668752e-08	2.350133866110387e-08	-8.654383634411554e-08
0.52	-0.3540182888005511	-0.04478454444555836	0.7871928038807456	1.005718115791874	-0.4330652818322149	-0.2855297026306647	-0.254223580114522	0.6362613547568881	0.6362613547568919	-0.1744739280776016	-0.1669686808966329	0.01827347482357811	-0.07425011508329712	-0.7769790836156104	-0.2356104401765328	-0.3808494370508889	2.078735951347454	-0.2108551495616128	0.609930239470832	-0.1119104457886473	1.431055898447538	1.43105589844752	-0.0007321390158687961	-0.04958936383671726	0.2277492085666131	-0.1230738230291599	-0.1808039055211185	0.01799693572682146	-0.005601208153787882	-0.1825999798812537	0.07380552985638934	0.05033107464783384	0.1757720737079864	-10.58923012334267	-23.64771937843161	7.595393764479788	-4.464852494401891	-535.6050102055789	-69.78671376794999	-33.27931075130324	0.7019865590007259	0.5029749630279426	-0.1679683175419503	-1.51810973275919	0.5782144837999125	-0.1711358289637	0.9922947875906852	-1.174149951938741	-1.174149951938711	0.01201702716636692	0.1562953941885937	-0.1700628825494389	0.5117614399622361	8.165462466544251e-10	-6.726731916698626e-07	-1.470061677965982e-07	-1.913889056116252e-07	-6.245897024381453e-08	2.667968868227903e-08	-8.515180622226723e-08
0.53	-0.3617515793631109	-0.0471152534030113	0.7833766910387886	1.026426173548518	-0.4351452230737911	-0.2794410391773289	-0.2552937679927204	0.6505114687601173	0.6505114687601244	-0.1744810155648427	-0.1674581401450629	0.02054199445946829	-0.07545578058080056	-0.7695759337356758	-0.230510471696357	-0.3822938975818157	2.062593332236192	-0.2051189734933592	0.6077208472783555	-0.1021614979600642	1.418777813643489	1.418777813643491	-0.0006862547967188678	-0.04829358112444723	0.2259186970078901	-0.1180585613709729	-0.185965722422864	0.01904499775852576	-0.005468106077521654	-0.1841272447557862	0.07378635509778175	0.0511262193900637	0.1796126213944601	-10.74516824227215	-23.93051650577862	7.600237539734725	-4.524622600060262	-538.1835954541878	-69.50367462104403	-32.67513794830427	0.7749582491915592	0.5166027082467674	-0.1208120690213344	-1.704662888380676	0.5735499362068692	-0.2581479766103549	0.9610395642208897	-1.282984143733071	-1.282984143730103	0.0006137576139884713	0.1175638346024793	-0.1949641942029752	0.4966345712225459	-4.548100752477323e-09	-6.330014658195968e-07	-1.314782134811951e-07	-1.806204198346849e-07	-5.960734856087188e-08	2.987912172014177e-08	-8.355844763845518e-08
0.54	-0.3694077426175291	-0.04939434369211562	0.7795485081618906	1.046964340136436	-0.4371673564011138	-0.2733769310583633	-0.2562674974358858	0.6646331326354845	0.6646331326354931	-0.1744876962821909	-0.1679343727414254	0.02279112519943609	-0.07661124825322696	-0.7615536219876675	-0.2252867065068067	-0.3832634440389162	2.044757717602085	-0.1992935667103497	0.6050191725970497	-0.09261875878233233	1.405365872875635	1.405365872875657	-0.000650785044583541	-0.04694403341792054	0.2238714293823982	-0.1130342580137611	-0.1911275393246088	0.02009305979022051	-0.005335004001092062	-0.1856545096303466	0.07376718033916524	0.05192136413227701	0.1834531690809452	-10.90870226861717	-24.21258770608791	7.605655574009896	-4.576992552152887	-540.8843319971769	-69.24614203370471	-32.0643831094557	0.8258189326154587	0.5277343049028336	-0.07298550277668633	-1.856708837328614	0.5960606267511241	-0.2695923267296346	0.9510530574205018	-1.400921144699837	-1.400921144699838	0.009934133763534997	0.1670483930399095	-0.2134140959032217	0.5135697797672333	-8.673404429848072e-09	-5.987629520655597e-07	-1.210959189123939e-07	-1.711330154118909e-07	-5.654774493402237e-08	3.310188064880778e-08	-8.174234267119385e-08
0.55	-0.3769806561674353	-0.05162064934485654	0.7757130113880621	1.067315871925206	-0.4391308079241658	-0.267342214407402	-0.2571469524200232	0.678615106124588	0.6786151061245853	-0.174494005109426	-0.168396759711591	0.02501870477235757	-0.07771644222555256	-0.7529252568595297	-0.2199600018938902	-0.3837554630681245	2.025274391515541	-0.1933858309900357	0.6018385338986709	-0.08332604696981351	1.390850291217937	1.390850291217921	-0.0006058169796994521	-0.0455281994208921	0.221609515702834	-0.108006352242687	-0.1961646073910924	0.02090455891548958	-0.005216469776065306	-0.1870813871174692	0.07356178342488601	0.05278796886983905	0.1871514221130432	-11.123761387441	-24.5153490076975	7.612860637483666	-4.558499734791109	-543.4518617579582	-69.07672868153028	-31.44928459272732	0.8969316454485455	0.5372686699890552	-0.02525392994938536	-2.035269720932326	0.589865403444401	-0.3552059738288517	0.9103089046558464	-1.503640584984226	-1.503640584989874	0.002439981021058923	0.1296335907380005	-0.237840693499027	0.4972341595944002	-1.793081929743434e-08	-5.514898922213258e-07	-8.787586818269787e-08	-1.53417433158722e-07	-5.9671170026473e-08	3.654703666849787e-08	-8.123017402610091e-08
0.5600000000000001	-0.3844641687975519	-0.05379326192536769	0.7718750056585492	1.087464345407769	-0.4410348350182665	-0.2613418854099099	-0.2579350945537428	0.6924465710153728	0.6924465710153719	-0.174499731888312	-0.1688448318042884	0.02722261307057845	-0.07877139050340401	-0.7436734380299687	-0.2145480920608564	-0.3837652351756606	2.004146056364383	-0.1874086809188002	0.5981416419028179	-0.07435618869776656	1.375264153213061	1.375264153213008	-0.0005343753880101149	-0.04408105791570883	0.2191371744426309	-0.1029851191189358	-0.2012016754577572	0.02171605804073692	-0.005097935550781378	-0.1885082646046337	0.07335638651061076	0.05365457360737651	0.1908496751449723	-11.34582498567917	-24.81761282604049	7.620819030760314	-4.536495367983517	-546.1341614811619	-68.93245312307371	-30.83198992705913	0.9505096729000438	0.5447753489262814	0.02346388155777202	-2.185710650251441	0.609943496935489	-0.3728429862244915	0.886482349326165	-1.615032414135306	-1.615032414135311	0.01522883912467371	0.1733098946708664	-0.2554996120309905	0.5122352503027096	-3.334676759327902e-08	-4.885753770688565e-07	-2.725051005992878e-08	-1.258280375091037e-07	-7.021422958208352e-08	4.025906919741683e-08	-8.228272896761001e-08
0.5700000000000001	-0.391852284669991	-0.05591139682103885	0.7680393101883618	1.107393592172268	-0.4428787972949953	-0.255380721668901	-0.2586351106688033	0.7061167799618889	0.7061167799618967	-0.1745048458085226	-0.1692779425448617	0.02940068068570749	-0.07977625246755053	-0.7338591460056763	-0.2090698964849717	-0.383294167037471	1.981449128198154	-0.1813792554861281	0.5940087936978916	-0.06570515545577069	1.358607735039351	1.358607735039289	-0.0004892961650648777	-0.04253628482696135	0.2164409984315581	-0.09799596406836592	-0.2060358100935056	0.02259157798411567	-0.005006369569457115	-0.1899580725696714	0.07328670525101619	0.05424281033369426	0.1943554724278843	-11.5211256118294	-25.00927684926648	7.613552123701197	-4.477947229859146	-548.6734159301791	-68.57334504694205	-30.21579545319344	1.010482764680644	0.5506682057757706	0.07086681802286036	-2.349804385675218	0.6001872757356549	-0.4459165106216831	0.845695640484685	-1.716415100939201	-1.716415100940542	-0.001069308542122571	0.1458074689704094	-0.2819923826315455	0.4910235611547447	-4.039177448121424e-08	-4.379109205116407e-07	3.305195468216693e-09	-1.079527649326968e-07	-7.105733049401956e-08	4.263239114636633e-08	-8.022094194241342e-08
